<?xml version="1.0" encoding="utf-8"?>
<!-- Generator: Adobe Illustrator 20.1.0, SVG Export Plug-In . SVG Version: 6.00 Build 0)  -->
<svg version="1.1" id="Layer_1" xmlns="http://www.w3.org/2000/svg" xmlns:xlink="http://www.w3.org/1999/xlink" x="0px" y="0px"
	 viewBox="0 0 441 85" style="enable-background:new 0 0 441 85;" xml:space="preserve">
<style type="text/css">
	.st0{fill:#6A686F;}
	.st1{fill:#ED6E00;}
</style>
<path class="st0" d="M73.2,32.3h-2.9L67.7,46c-0.9,4.6-3,6.2-6.8,6.2c-3.9,0-4.9-1.9-4.3-5.4l2.8-14.5h-2.9l-2.7,14.4
	c-0.9,4.4,0.3,8,6.7,8c5.5,0,9-2.7,10.1-8.4L73.2,32.3z"/>
<path class="st0" d="M89.6,43.3c0.6-3.4-0.4-5.5-3.4-5.5c-3.4,0-6,3.3-7.5,6.7h-0.1c1.1-3.5,1.6-5.3,1.8-6.4h-2.8
	c-0.4,2.4-1,5.4-1.4,7.8l-1.6,8.5h2.9l0.7-3.7c0.8-4,4.1-10.4,7.1-10.4c1.5,0,1.9,1.1,1.4,3.7l-2,10.4h2.9L89.6,43.3z"/>
<path class="st0" d="M100.2,33.4c0.1-1-0.8-1.8-1.8-1.8c-1.1,0-2,0.9-2.1,2c-0.1,1,0.7,1.9,1.8,1.9C99.2,35.4,100.2,34.5,100.2,33.4
	z M98.9,38.1H96l-3.1,16.3h2.9L98.9,38.1z"/>
<path class="st0" d="M116.5,38.4l-2.7-0.9l-6.9,13.4h0c-0.1-1-0.2-2.1-0.4-3.1l-1.5-9.6h-3.1l2.9,16.3h3L116.5,38.4z"/>
<path class="st0" d="M130.3,41.5c0-1.9-1.3-3.7-4.8-3.7c-5.4,0-8.9,5.3-8.9,11.6c0,3.7,1.7,5.3,5.5,5.3c2.1,0,4-0.4,5.6-1v-2.4
	c-1.4,0.6-3,0.9-4.6,0.9c-2.6,0-3.5-0.7-3.5-3.2c0-0.6,0.1-1.4,0.2-1.9C126.8,46.9,130.3,45,130.3,41.5z M127.4,41.9
	c0,2-2.2,3-7.3,3.2c0.8-2.7,2.5-5,5.1-5C126.5,40,127.4,40.7,127.4,41.9z"/>
<path class="st0" d="M143.5,37.8c-3.1-0.5-5.1,2.4-6.9,6.3l-0.1,0c0.9-2.8,1.4-4.6,1.7-6h-2.8l-3.1,16.3h2.9l0.7-3.7
	c0.9-4.5,4.1-10.9,7.1-10L143.5,37.8z"/>
<path class="st0" d="M154,38c-0.8-0.1-1.6-0.2-2.8-0.2c-4.2,0-6.4,2.2-6.4,4.9c0,3.9,4.9,4.4,4.9,6.9c0,1.7-1.4,2.6-3.6,2.6
	c-0.9,0-1.8-0.2-2.6-0.4l-0.5,2.6c0.8,0.2,1.7,0.2,2.8,0.2c4.6,0,7-2.6,7-5.3c0-3.7-4.9-4.4-4.9-6.9c0-1.4,1.1-2.4,3.2-2.4
	c0.8,0,1.7,0.1,2.5,0.4L154,38z"/>
<path class="st0" d="M163.5,33.4c0.1-1-0.8-1.8-1.8-1.8c-1.1,0-2,0.9-2.1,2c-0.1,1,0.7,1.9,1.8,1.9
	C162.5,35.4,163.4,34.5,163.5,33.4z M162.1,38.1h-2.9l-3.1,16.3h2.9L162.1,38.1z"/>
<path class="st0" d="M175.5,38.1h-4.4l1.1-6l-3,0.7l-1,5.3h-3.3l-0.5,2.3h3.3l-1.7,9c-0.7,3.7,0.2,5.3,3.5,5.3c0.9,0,2.1-0.1,3-0.3
	l0.2-2.5c-0.7,0.2-1.3,0.3-2.3,0.3c-1.6,0-1.9-0.7-1.5-3.2l1.6-8.5h4.4L175.5,38.1z"/>
<path class="st0" d="M191.6,38.3c-1.5-0.3-3.2-0.5-5.1-0.5c-7.1,0-10.2,5.9-10.2,11.9c0,3.4,1.3,4.9,3.6,4.9c4,0,6.4-4.5,7.6-7
	l0.1,0c-1,3-1.6,5.2-1.9,6.6h2.9C189.2,50.5,189.8,47.4,191.6,38.3z M188.3,40.5l-0.2,1.3c-0.8,3.9-4.1,10.4-7.2,10.4
	c-1,0-1.7-0.8-1.7-3c0-4,1.9-9,6.7-9C186.9,40.2,187.6,40.3,188.3,40.5z M191.9,32.9c0-0.9-0.7-1.7-1.7-1.7c-1,0-1.8,0.8-1.8,1.8
	c0,0.9,0.8,1.7,1.7,1.7S191.9,34,191.9,32.9z M185.6,32.9c0-0.9-0.7-1.7-1.7-1.7c-1,0-1.8,0.8-1.8,1.8c0,0.9,0.8,1.7,1.7,1.7
	S185.6,34,185.6,32.9z"/>
<path class="st0" d="M204.6,38.1h-4.4l1.1-6l-3,0.7l-1,5.3H194l-0.5,2.3h3.3l-1.7,9c-0.7,3.7,0.2,5.3,3.5,5.3c0.9,0,2.1-0.1,3-0.3
	l0.2-2.5c-0.7,0.2-1.3,0.3-2.3,0.3c-1.6,0-1.9-0.7-1.5-3.2l1.6-8.5h4.4L204.6,38.1z"/>
<path class="st1" d="M284.3,32.2l-3.8,0l-7.4,14.1c-0.8,1.6-1.4,2.6-2,4.2l-0.1,0c0-1.3-0.1-2.8-0.3-4.4l-1.8-13.9l-3.6,0l-7.4,22.1
	l3.1,0l3.9-12.5c0.7-2.2,1.2-3.9,1.7-5.7l0,0c0,1.4,0.2,3.3,0.4,4.9l1.8,13.3l3.1,0l7.3-14.2c0.8-1.6,1.4-2.9,1.8-4l0.1,0
	c-0.1,1.3-0.3,3.1-0.4,5.6l-0.7,12.6l3.1,0L284.3,32.2z"/>
<path class="st1" d="M303.7,38.1l-2.9,0l-0.7,3.7c-0.8,4-4.2,10.4-7.2,10.4c-1.4,0-1.9-1.1-1.4-3.7l2-10.4l-2.9,0l-2.1,11.1
	c-0.7,3.4,0.4,5.5,3.4,5.5c3.4,0,6-3.3,7.5-6.7l0.1,0c-1.2,3.5-1.6,5.3-1.8,6.4l2.9,0L303.7,38.1z M303,32.9c0-0.9-0.7-1.7-1.7-1.7
	c-1,0-1.8,0.8-1.8,1.8c0,0.9,0.7,1.7,1.7,1.7C302.2,34.7,303,34,303,32.9z M296.7,32.9c0-0.9-0.7-1.7-1.7-1.7c-1,0-1.8,0.8-1.8,1.8
	c0,0.9,0.7,1.7,1.7,1.7C295.9,34.7,296.7,33.9,296.7,32.9z"/>
<path class="st1" d="M321.1,43.4c0.6-3.4-0.4-5.5-3.4-5.5c-3.4,0-6,3.3-7.5,6.7l-0.1,0c1.2-3.5,1.6-5.3,1.8-6.4l-2.8,0
	c-0.4,2.4-1,5.4-1.5,7.7l-1.7,8.5l2.9,0l0.7-3.7c0.8-4,4.1-10.4,7.1-10.4c1.5,0,1.9,1.1,1.4,3.7l-2,10.4l2.9,0L321.1,43.4z"/>
<path class="st1" d="M337.1,38.5c-1-0.3-2.1-0.5-3.4-0.5c-5.8,0-9.3,5.2-9.4,11.4c0,3.1,1.4,5.4,5.6,5.4c1.6,0,3.1-0.3,4.3-0.8
	l0.2-2.6c-1,0.5-2.4,0.8-3.7,0.8c-2.8,0-3.4-1.7-3.4-3.4c0-3.7,2-8.3,6.1-8.3c1.1,0,2.1,0.2,3,0.6L337.1,38.5z"/>
<path class="st1" d="M353,43.5c0.7-3.4-0.4-5.5-3.4-5.5c-3.4,0-6,3.3-7.5,6.7l-0.1,0c1.2-3.6,1.6-5.1,1.9-6.4l1.5-7.6l-2.9,0
	l-4.6,23.9l2.9,0l0.7-3.7c0.8-4,4.1-10.4,7.1-10.4c1.5,0,1.9,1.1,1.4,3.7l-2,10.4l2.9,0L353,43.5z"/>
<path class="st1" d="M370,41.8c0-1.9-1.3-3.7-4.8-3.7c-5.4,0-8.9,5.2-8.9,11.6c0,3.7,1.7,5.3,5.4,5.3c2.1,0,4-0.3,5.6-1l0-2.4
	c-1.4,0.6-3,0.9-4.6,0.9c-2.6,0-3.5-0.7-3.5-3.2c0-0.6,0.1-1.4,0.2-1.9C366.4,47.2,370,45.3,370,41.8z M367.1,42.1
	c0,2-2.2,3-7.3,3.1c0.8-2.7,2.5-5,5.1-5C366.2,40.3,367.1,40.9,367.1,42.1z"/>
<path class="st1" d="M387,43.6c0.6-3.4-0.4-5.5-3.4-5.5c-3.4,0-6,3.3-7.5,6.7l-0.1,0c1.2-3.5,1.6-5.3,1.8-6.4l-2.8,0
	c-0.4,2.4-1,5.4-1.5,7.7l-1.7,8.5l2.9,0l0.7-3.7c0.8-4,4.1-10.4,7.1-10.4c1.5,0,1.9,1.1,1.4,3.7l-2,10.4l2.9,0L387,43.6z"/>
<path class="st0" d="M211.7,10.2h-1.5l-0.7,3.8c-0.4-0.1-0.7-0.1-1.1-0.1c-3.6,0-5.1,3-5.1,6c0,1.7,0.6,2.5,1.8,2.5
	c2,0,3.2-2.2,3.8-3.5l0,0c-0.5,1.5-0.8,2.6-0.9,3.3h1.4c0.1-0.7,0.3-1.8,0.5-2.9L211.7,10.2z M209.3,15.2l-0.1,0.7
	c-0.4,1.9-2,5.2-3.6,5.2c-0.5,0-0.8-0.4-0.8-1.5c0-2,0.9-4.5,3.4-4.5C208.6,15,209,15.1,209.3,15.2z"/>
<path class="st0" d="M219,15.7c0-1-0.7-1.8-2.4-1.8c-2.7,0-4.4,2.6-4.4,5.8c0,1.8,0.9,2.6,2.7,2.6c1.1,0,2-0.2,2.8-0.5v-1.2
	c-0.7,0.3-1.5,0.5-2.3,0.5c-1.3,0-1.8-0.3-1.8-1.6c0-0.3,0-0.7,0.1-0.9C217.2,18.4,219,17.5,219,15.7z M217.5,15.9
	c0,1-1.1,1.5-3.6,1.6c0.4-1.4,1.2-2.5,2.5-2.5C217.1,15,217.5,15.3,217.5,15.9z"/>
<path class="st0" d="M225.5,13.9c-1.6-0.3-2.6,1.2-3.5,3.2l0,0c0.5-1.4,0.7-2.3,0.8-3h-1.4l-1.5,8.1h1.4l0.3-1.8
	c0.4-2.3,2-5.4,3.5-5L225.5,13.9z"/>
<path class="st0" d="M237.5,13.2c0-1.3-1-2.1-3.1-2.1c-1.3,0-2.4,0-3.2,0l-2.1,11c1,0,2.1,0,2.8,0c3.1,0,4.8-1.8,4.8-3.8
	c0-1-0.6-1.8-1.7-2v0C236.4,15.9,237.5,14.8,237.5,13.2z M236,13.5c0,1.5-1.4,2.4-3.2,2.4c-0.4,0-0.6,0-0.9,0l0.7-3.6
	c0.5,0,1,0,1.5,0C235.6,12.2,236,12.8,236,13.5z M235.2,18.5c0,1.3-1,2.5-3,2.5c-0.6,0-1.1,0-1.3-0.1l0.7-3.9c0.3,0,0.8,0,1.2,0
	C234.5,17,235.2,17.5,235.2,18.5z"/>
<path class="st0" d="M246.4,14h-1.4l-0.3,1.8c-0.4,2-2.1,5.2-3.6,5.2c-0.7,0-0.9-0.6-0.7-1.8l1-5.2h-1.5l-1,5.5
	c-0.3,1.7,0.2,2.8,1.7,2.8c1.7,0,3-1.7,3.7-3.4h0c-0.6,1.7-0.8,2.7-0.9,3.2h1.4L246.4,14z"/>
<path class="st0" d="M255.1,16.6c0.3-1.7-0.2-2.8-1.7-2.8c-1.7,0-3,1.7-3.8,3.4h0c0.6-1.7,0.8-2.7,0.9-3.2h-1.4
	c-0.2,1.2-0.5,2.7-0.7,3.9l-0.8,4.3h1.4l0.3-1.8c0.4-2,2-5.2,3.5-5.2c0.7,0,1,0.6,0.7,1.8l-1,5.2h1.4L255.1,16.6z"/>
<path class="st0" d="M265.1,10.2h-1.5l-0.7,3.8c-0.4-0.1-0.7-0.1-1.1-0.1c-3.5,0-5.1,3-5.1,6c0,1.7,0.6,2.5,1.8,2.5
	c2,0,3.2-2.2,3.8-3.5l0,0c-0.5,1.5-0.8,2.6-0.9,3.3h1.4c0.1-0.7,0.3-1.8,0.5-2.9L265.1,10.2z M262.7,15.2l-0.1,0.7
	c-0.4,1.9-2,5.2-3.6,5.2c-0.5,0-0.8-0.4-0.8-1.5c0-2,0.9-4.5,3.4-4.5C262,15,262.4,15.1,262.7,15.2z"/>
<path class="st0" d="M272.4,15.7c0-1-0.7-1.8-2.4-1.8c-2.7,0-4.4,2.6-4.4,5.8c0,1.8,0.9,2.6,2.7,2.6c1.1,0,2-0.2,2.8-0.5v-1.2
	c-0.7,0.3-1.5,0.5-2.3,0.5c-1.3,0-1.7-0.3-1.7-1.6c0-0.3,0-0.7,0.1-0.9C270.6,18.4,272.4,17.5,272.4,15.7z M270.9,15.9
	c0,1-1.1,1.5-3.6,1.6c0.4-1.4,1.2-2.5,2.5-2.5C270.5,15,270.9,15.3,270.9,15.9z"/>
<path class="st0" d="M278.5,14c-0.4-0.1-0.8-0.1-1.4-0.1c-2.1,0-3.2,1.1-3.2,2.5c0,2,2.5,2.2,2.5,3.5c0,0.9-0.7,1.3-1.8,1.3
	c-0.5,0-0.9-0.1-1.3-0.2l-0.3,1.3c0.4,0.1,0.9,0.1,1.4,0.1c2.3,0,3.5-1.3,3.5-2.6c0-1.8-2.5-2.2-2.5-3.5c0-0.7,0.6-1.2,1.6-1.2
	c0.4,0,0.8,0.1,1.2,0.2L278.5,14z"/>
<path class="st0" d="M291.9,14.1l-1.4-0.4l-3.2,6.7h0c0-0.5-0.1-1.5-0.2-2.1l-0.6-4.3h-1.5l-3.1,6.4h0c0-0.5-0.1-1.3-0.1-2l-0.4-4.3
	h-1.5l0.9,8.1h1.6l3.1-6.2h0c0,0.6,0.1,1.1,0.1,1.6l0.6,4.6h1.7L291.9,14.1z"/>
<path class="st0" d="M298.9,15.7c0-1-0.7-1.8-2.4-1.8c-2.7,0-4.5,2.6-4.5,5.8c0,1.8,0.9,2.6,2.7,2.6c1.1,0,2-0.2,2.8-0.5v-1.2
	c-0.7,0.3-1.5,0.5-2.3,0.5c-1.3,0-1.8-0.3-1.8-1.6c0-0.3,0-0.7,0.1-0.9C297.1,18.4,298.9,17.5,298.9,15.7z M297.4,15.9
	c0,1-1.1,1.5-3.6,1.6c0.4-1.4,1.2-2.5,2.5-2.5C297,15,297.4,15.3,297.4,15.9z"/>
<path class="st0" d="M307.4,16.6c0.3-1.7-0.2-2.8-1.7-2.8c-1.7,0-3,1.7-3.8,3.4h0c0.6-1.8,0.8-2.6,0.9-3.2l0.7-3.8h-1.4l-2.3,11.9
	h1.4l0.3-1.8c0.4-2,2-5.2,3.6-5.2c0.7,0,1,0.6,0.7,1.8l-1,5.2h1.4L307.4,16.6z"/>
<path class="st0" d="M314.7,13.9c-1.6-0.3-2.6,1.2-3.5,3.2l0,0c0.5-1.4,0.7-2.3,0.8-3h-1.4l-1.5,8.1h1.4l0.3-1.8
	c0.4-2.3,2-5.4,3.5-5L314.7,13.9z"/>
<path class="st1" d="M238.4,55.6c-0.2,0.6-1.1,0.8-1.4,0.3c-0.2-0.5-0.4-0.5-0.8-0.8c-0.4-0.3,0.2-0.5,0.2-0.5
	c-0.1-0.1-0.4-0.2-0.7-0.3c-0.5-0.1-0.5-0.8,0.1-0.8c0.7,0,1.1,0.1,1.8,0.5c0.4,0.2,0.8,0.3,1.3,0.4c0.6,0,0.6,1.3-0.3,1.2
	L238.4,55.6z"/>
<path class="st1" d="M217.4,69.4l-0.3,0.1c-0.5,0.2-0.8-0.5-0.3-0.8l0.3-0.1l1.6-0.6c0.8-0.2,1.3-0.3,2.1-0.4
	c2.4-0.1,2.8,0.5,4.9,1.4c2.4,1,3.7,1.9,6.5,1.9c2.9,0,6.4-1.8,8.9-3.1c0.5-0.3,0.9,0.4,0.4,0.7c-2.6,1.9-6.8,3.8-10.1,3.8
	c-4.7,0-5.6-2.4-9.6-3.4C220.7,68.6,218.7,68.9,217.4,69.4z"/>
<path class="st1" d="M217.5,40.7c-0.3,3,0,5.9,1.2,8.7c1.1,2.4,1.7,3.3,1.7,6.2c0.1,3.7-0.3,5.7-0.6,11l0,0.3c0,0.5-1.5,0.7-1.8,0.8
	c-2.2,0.7-4.2,1.9-5.9,3.4c-0.4,0.4-0.9-0.1-0.6-0.6c1.4-1.7,2.6-2.7,4.4-3.5c0.3-0.1,1.4-0.7,2.4-1c0.2-3,0.8-11.3,0.3-13.1
	c-0.4-1.3-1.1-2.4-1.6-3.7c-0.8-2.1-1.2-5.2-1.1-7.5c0.1-2.2,0.7-4.4,1.8-6.3c0.3-0.5,0.9-0.2,0.7,0.3
	C217.9,37.6,217.6,38.7,217.5,40.7z"/>
<path class="st1" d="M225.5,64c-0.5,0.5-1.4,1.1-2.6,1.2c-0.6,0-0.7-0.6-0.1-0.8c0.8-0.2,1.5-0.8,1.9-1.2c0.2-0.2,0.6-0.9,1-1.8
	c0.2-0.5,0.8-0.4,0.8,0.2C226.4,62.8,225.9,63.6,225.5,64z"/>
<path class="st1" d="M227.7,58.1c-0.1-0.4,0.1-1.2,0.3-1.9c0.2-0.5,0.9-0.3,0.8,0.3c-0.3,0.8-0.2,1.2,0.1,2c0.1,0.3,0.3,0.5,0.4,0.8
	c0.4,0.4-0.2,1-0.6,0.6C228.1,59.2,227.7,58.5,227.7,58.1z"/>
<path class="st1" d="M241.6,47.5c-1.2,0-2,0.5-2.6,0.9c-0.4,0.3-0.9-0.1-0.6-0.6c1-1.5,2.6-1.8,4.2-1.6c0.7,0.1,1.4,2.5,0.3,1.7
	C242.4,47.6,242,47.5,241.6,47.5z"/>
<path class="st1" d="M222.4,41.5c-1,3.9-0.1,6.8,3.2,9.1c0.1,0.1,0.2,0.4,0.1,0.5c-0.4,0.8-0.5,1.7-0.3,2.6c0.1,0.5-0.4,0.8-0.7,0.3
	c-0.6-0.8-0.8-1.8-0.6-2.8c-2.6-1.7-3.8-4.4-3.6-7.5c0.2-2.5,1.5-5,3.2-6.8c0.4-0.4,1,0.1,0.6,0.5C223.3,38.9,222.9,39.8,222.4,41.5
	z"/>
<path class="st1" d="M238.2,60.7l0.3,0c0.2,0,0.3,0,0.3-0.2c-0.5-1.5,1.2-0.7,1.8-0.5c0-1.4,0-3.1,0-4.2c0-0.8,0.9-1.6,1.2-2.3
	c0.1-0.2,0.2-0.6,0.4-0.9c-1.2,0.4-2.5-0.2-3.2-1.1c-0.4-0.4,0.1-0.9,0.5-0.6c1,0.6,1.9,0.9,2.8,0.1c0.4-0.2,0.7-0.1,0.9,0.1
	l0.2,0.2c0.4-0.6,0.4-1.4,0.2-2c-0.3-0.8-0.7-1.2-1.4-1.6l-2-3.4c-0.6-1.2-0.1-2.9-1.4-4.1c-0.3-0.3-1-0.6-1.1-0.8
	c-0.5-1-1.6-2.8-2.6-3.5c-1.2-0.7-3.8-0.9-5.2-0.8c-0.6,0-0.7-0.7-0.1-0.8c0.8-0.1,1.7-0.2,2.5-0.2c-0.1-0.6-0.2-3.2,0.2-3.6
	l0.8-0.8l-0.5-0.3l-1.7-0.4l-2.7-0.2c-0.6,0-0.6-0.8,0-0.8c0,0,1.6-0.3,2.7-0.2c0.8,0.1,1.3,0.1,2.1,0.4c0.9,0.4,2.1,1.1,0.6,2.4
	l-0.3,0.4c-0.2,1-0.1,2.1,0.2,3.1c2.3,0.4,3.9,2.2,5,4.3c2,0.9,2.8,3.3,2.8,5.4c0.5,1,1,2.1,1.7,3c0.9,0.4,1.5,1.5,1.6,1.9
	c0.3,1,0.5,3.4-0.7,4c-0.1,0-0.2,0.1-0.3,0.1c-0.3,0.2-0.4,0.3-0.6,0.4c-0.4,0.8-0.7,1.5-1.2,2.2c-0.1,0.2-0.4,0.6-0.4,0.9
	c0,1.8,0,3.2,0.1,4.6c0,0.8-1.2,0.3-1.9,0.1c-0.1,0.2-0.2,0.3-0.3,0.5c0,0.5-0.3,1.1-0.7,1.4c0,0.2,0.2,0.7,0.2,1
	c0,0.4-0.2,0.8-0.4,1c1.7,0.9,2.8,0.5,4.6,0.8c3.1,0.5,5.2,3.2,6.6,5.7l0.3,1.7c0.1,0.6-0.6,0.7-0.8,0.2c-1-2.5-2.8-5.1-5.3-6.2
	c-1.7-0.7-1.9-0.5-3.5-0.6c-1.3-0.1-1.8-0.8-2.9-0.9c-0.6-0.1-1.2-0.2-1.8-0.4c-0.1,0.1-0.1,0.3-0.2,0.4c-0.2,0.5-0.1,1.8-0.1,2.3
	c0,0.6-0.7,0.6-0.8,0.1c-0.2-1.3-0.4-1.7-0.2-3c-1.3-0.4-2.1-1.1-3-1.9c-0.3-0.3-0.6-0.6-0.9-0.9c-0.4-0.5,0.2-1,0.6-0.6
	c0.3,0.3,0.5,0.6,0.8,0.8c0.2,0.2,0.5,0.4,0.8,0.6c0.9,0.6,1.5,0.9,2.6,1.2l1.5,0.2c1.2,0.2,1.3-1.3,1-1.9c-0.1-0.2,0.1-0.5,0.3-0.8
	c-0.7-0.1-1.4-0.3-1.9-0.7c-0.5-0.3-0.2-0.9,0.4-0.7C237,60.6,237.6,60.7,238.2,60.7z"/>
<path class="st1" d="M236.9,44.4c-1.1,0.3-1.8,0.5-2.8,1.1c-0.5,0.3-0.9-0.4-0.4-0.7c1.6-1.2,3.4-1.7,5.4-1.6c0.6,0,0.6,0.8,0,0.8
	C238.2,44.1,237.7,44.2,236.9,44.4z"/>
<path class="st1" d="M227.6,51.6c0.7-0.9,1.2-1.9,1.5-3.1c0.1-0.5,0.6-0.5,0.8-0.1c0.3,0.7,0.9,1.1,1.7,1.2c0.6,0,0.6,0.7,0,0.8
	c-0.6,0.1-1.2,0-1.8-0.2c-0.6,1.4-1.6,2.6-3,3.3c-0.5,0.2-0.9-0.3-0.4-0.7C226.9,52.4,227.1,52.1,227.6,51.6z"/>
</svg>
