<?xml version="1.0" encoding="utf-8"?>
<!-- Generator: Adobe Illustrator 20.1.0, SVG Export Plug-In . SVG Version: 6.00 Build 0)  -->
<svg version="1.1" id="Layer_1" xmlns="http://www.w3.org/2000/svg" xmlns:xlink="http://www.w3.org/1999/xlink" x="0px" y="0px"
	 viewBox="0 0 441 85" style="enable-background:new 0 0 441 85;" xml:space="preserve">
<style type="text/css">
	.st0{fill:#ED6E00;}
</style>
<path class="st0" d="M238.4,55.6c-0.2,0.6-1.1,0.8-1.4,0.3c-0.2-0.5-0.4-0.5-0.8-0.8c-0.4-0.3,0.2-0.5,0.2-0.5
	c-0.1-0.1-0.4-0.2-0.7-0.3c-0.5-0.1-0.5-0.8,0.1-0.8c0.7,0,1.1,0.1,1.8,0.5c0.4,0.2,0.8,0.3,1.3,0.4c0.6,0,0.6,1.3-0.3,1.2
	L238.4,55.6z"/>
<path class="st0" d="M217.4,69.4l-0.3,0.1c-0.5,0.2-0.8-0.5-0.3-0.8l0.3-0.1l1.6-0.6c0.8-0.2,1.3-0.3,2.1-0.4
	c2.4-0.1,2.8,0.5,4.9,1.4c2.4,1,3.7,1.9,6.5,1.9c2.9,0,6.4-1.8,8.9-3.1c0.5-0.3,0.9,0.4,0.4,0.7c-2.6,1.9-6.8,3.8-10.1,3.8
	c-4.7,0-5.6-2.4-9.6-3.4C220.7,68.6,218.7,68.9,217.4,69.4z"/>
<path class="st0" d="M217.5,40.7c-0.3,3,0,5.9,1.2,8.7c1.1,2.4,1.7,3.3,1.7,6.2c0.1,3.7-0.3,5.7-0.6,11v0.3c0,0.5-1.5,0.7-1.8,0.8
	c-2.2,0.7-4.2,1.9-5.9,3.4c-0.4,0.4-0.9-0.1-0.6-0.6c1.4-1.7,2.6-2.7,4.4-3.5c0.3-0.1,1.4-0.7,2.4-1c0.2-3,0.8-11.3,0.3-13.1
	c-0.4-1.3-1.1-2.4-1.6-3.7c-0.8-2.1-1.2-5.2-1.1-7.5c0.1-2.2,0.7-4.4,1.8-6.3c0.3-0.5,0.9-0.2,0.7,0.3
	C217.9,37.6,217.6,38.7,217.5,40.7z"/>
<path class="st0" d="M225.5,64c-0.5,0.5-1.4,1.1-2.6,1.2c-0.6,0-0.7-0.6-0.1-0.8c0.8-0.2,1.5-0.8,1.9-1.2c0.2-0.2,0.6-0.9,1-1.8
	c0.2-0.5,0.8-0.4,0.8,0.2C226.4,62.8,225.9,63.6,225.5,64z"/>
<path class="st0" d="M227.7,58.1c-0.1-0.4,0.1-1.2,0.3-1.9c0.2-0.5,0.9-0.3,0.8,0.3c-0.3,0.8-0.2,1.2,0.1,2c0.1,0.3,0.3,0.5,0.4,0.8
	c0.4,0.4-0.2,1-0.6,0.6C228.1,59.2,227.7,58.5,227.7,58.1z"/>
<path class="st0" d="M241.6,47.5c-1.2,0-2,0.5-2.6,0.9c-0.4,0.3-0.9-0.1-0.6-0.6c1-1.5,2.6-1.8,4.2-1.6c0.7,0.1,1.4,2.5,0.3,1.7
	C242.4,47.6,242,47.5,241.6,47.5z"/>
<path class="st0" d="M222.4,41.5c-1,3.9-0.1,6.8,3.2,9.1c0.1,0.1,0.2,0.4,0.1,0.5c-0.4,0.8-0.5,1.7-0.3,2.6c0.1,0.5-0.4,0.8-0.7,0.3
	c-0.6-0.8-0.8-1.8-0.6-2.8c-2.6-1.7-3.8-4.4-3.6-7.5c0.2-2.5,1.5-5,3.2-6.8c0.4-0.4,1,0.1,0.6,0.5C223.3,38.9,222.9,39.8,222.4,41.5
	z"/>
<path class="st0" d="M238.2,60.7h0.3c0.2,0,0.3,0,0.3-0.2c-0.5-1.5,1.2-0.7,1.8-0.5c0-1.4,0-3.1,0-4.2c0-0.8,0.9-1.6,1.2-2.3
	c0.1-0.2,0.2-0.6,0.4-0.9c-1.2,0.4-2.5-0.2-3.2-1.1c-0.4-0.4,0.1-0.9,0.5-0.6c1,0.6,1.9,0.9,2.8,0.1c0.4-0.2,0.7-0.1,0.9,0.1
	l0.2,0.2c0.4-0.6,0.4-1.4,0.2-2c-0.3-0.8-0.7-1.2-1.4-1.6l-2-3.4c-0.6-1.2-0.1-2.9-1.4-4.1c-0.3-0.3-1-0.6-1.1-0.8
	c-0.5-1-1.6-2.8-2.6-3.5c-1.2-0.7-3.8-0.9-5.2-0.8c-0.6,0-0.7-0.7-0.1-0.8c0.8-0.1,1.7-0.2,2.5-0.2c-0.1-0.6-0.2-3.2,0.2-3.6
	l0.8-0.8l-0.5-0.3l-1.7-0.4l-2.7-0.2c-0.6,0-0.6-0.8,0-0.8c0,0,1.6-0.3,2.7-0.2c0.8,0.1,1.3,0.1,2.1,0.4c0.9,0.4,2.1,1.1,0.6,2.4
	l-0.3,0.4c-0.2,1-0.1,2.1,0.2,3.1c2.3,0.4,3.9,2.2,5,4.3c2,0.9,2.8,3.3,2.8,5.4c0.5,1,1,2.1,1.7,3c0.9,0.4,1.5,1.5,1.6,1.9
	c0.3,1,0.5,3.4-0.7,4c-0.1,0-0.2,0.1-0.3,0.1c-0.3,0.2-0.4,0.3-0.6,0.4c-0.4,0.8-0.7,1.5-1.2,2.2c-0.1,0.2-0.4,0.6-0.4,0.9
	c0,1.8,0,3.2,0.1,4.6c0,0.8-1.2,0.3-1.9,0.1c-0.1,0.2-0.2,0.3-0.3,0.5c0,0.5-0.3,1.1-0.7,1.4c0,0.2,0.2,0.7,0.2,1
	c0,0.4-0.2,0.8-0.4,1c1.7,0.9,2.8,0.5,4.6,0.8c3.1,0.5,5.2,3.2,6.6,5.7l0.3,1.7c0.1,0.6-0.6,0.7-0.8,0.2c-1-2.5-2.8-5.1-5.3-6.2
	c-1.7-0.7-1.9-0.5-3.5-0.6c-1.3-0.1-1.8-0.8-2.9-0.9c-0.6-0.1-1.2-0.2-1.8-0.4c-0.1,0.1-0.1,0.3-0.2,0.4c-0.2,0.5-0.1,1.8-0.1,2.3
	c0,0.6-0.7,0.6-0.8,0.1c-0.2-1.3-0.4-1.7-0.2-3c-1.3-0.4-2.1-1.1-3-1.9c-0.3-0.3-0.6-0.6-0.9-0.9c-0.4-0.5,0.2-1,0.6-0.6
	c0.3,0.3,0.5,0.6,0.8,0.8c0.2,0.2,0.5,0.4,0.8,0.6c0.9,0.6,1.5,0.9,2.6,1.2l1.5,0.2c1.2,0.2,1.3-1.3,1-1.9c-0.1-0.2,0.1-0.5,0.3-0.8
	c-0.7-0.1-1.4-0.3-1.9-0.7c-0.5-0.3-0.2-0.9,0.4-0.7C237,60.6,237.6,60.7,238.2,60.7z"/>
<path class="st0" d="M236.9,44.4c-1.1,0.3-1.8,0.5-2.8,1.1c-0.5,0.3-0.9-0.4-0.4-0.7c1.6-1.2,3.4-1.7,5.4-1.6c0.6,0,0.6,0.8,0,0.8
	C238.2,44.1,237.7,44.2,236.9,44.4z"/>
<path class="st0" d="M227.6,51.6c0.7-0.9,1.2-1.9,1.5-3.1c0.1-0.5,0.6-0.5,0.8-0.1c0.3,0.7,0.9,1.1,1.7,1.2c0.6,0,0.6,0.7,0,0.8
	s-1.2,0-1.8-0.2c-0.6,1.4-1.6,2.6-3,3.3c-0.5,0.2-0.9-0.3-0.4-0.7C226.9,52.4,227.1,52.1,227.6,51.6z"/>
</svg>
